<svg width="29" height="29" viewBox="0 0 29 29" fill="none" xmlns="http://www.w3.org/2000/svg">
<g clip-path="url(#clip0_0_44)">
<path d="M14.2043 2.7613C7.839 2.7613 2.63104 7.96926 2.63104 14.3345C2.63104 20.6998 7.839 25.9078 14.2043 25.9078C20.5696 25.9078 25.7775 20.6998 25.7775 14.3345C25.7775 7.96926 20.5696 2.7613 14.2043 2.7613ZM4.94569 14.3345C4.94569 9.24231 9.11205 5.07595 14.2043 5.07595C16.2875 5.07595 18.2549 5.77034 19.8752 7.0434L6.91314 20.0054C5.64008 18.3852 4.94569 16.4177 4.94569 14.3345ZM14.2043 23.5931C12.1211 23.5931 10.1536 22.8987 8.53339 21.6257L21.4954 8.66365C22.7685 10.2839 23.4629 12.2514 23.4629 14.3345C23.4629 19.4268 19.2965 23.5931 14.2043 23.5931Z" fill="#4B4B4B"/>
</g>
<defs>
<clipPath id="clip0_0_44">
<rect width="27.7758" height="27.7758" fill="white" transform="translate(0.316406 0.446655)"/>
</clipPath>
</defs>
</svg>
