<svg width="29" height="29" viewBox="0 0 29 29" fill="none" xmlns="http://www.w3.org/2000/svg">
<g clip-path="url(#clip0_0_34)">
<path d="M23.4629 5.03431V18.9222H9.57498V5.03431H23.4629ZM23.4629 2.71967H9.57498C8.30193 2.71967 7.26034 3.76126 7.26034 5.03431V18.9222C7.26034 20.1953 8.30193 21.2368 9.57498 21.2368H23.4629C24.7359 21.2368 25.7775 20.1953 25.7775 18.9222V5.03431C25.7775 3.76126 24.7359 2.71967 23.4629 2.71967ZM13.6256 13.911L15.5815 16.5265L18.4517 12.9388L22.3055 17.7649H10.7323L13.6256 13.911ZM2.63104 7.34896V23.5515C2.63104 24.8245 3.67263 25.8661 4.94569 25.8661H21.1482V23.5515H4.94569V7.34896H2.63104Z" fill="#4B4B4B"/>
</g>
<defs>
<clipPath id="clip0_0_34">
<rect width="27.7758" height="27.7758" fill="white" transform="translate(0.316406 0.405029)"/>
</clipPath>
</defs>
</svg>
