<svg width="263" height="267" viewBox="0 0 263 267" fill="none" xmlns="http://www.w3.org/2000/svg">
<path d="M137.886 34.708C141.565 38.9999 142.484 42.0655 141.769 47.6858C140.645 56.0651 133.798 61.7876 124.806 61.7876C118.266 61.7876 119.288 63.3204 126.543 64.4445C138.806 66.2838 149.637 54.5323 146.265 43.1896C144.937 38.8977 138.295 31.1315 135.944 31.1315C135.229 31.1315 136.149 32.7665 137.886 34.708Z" fill="url(#paint0_linear_90_40)"/>
<path d="M120.616 38.1822C120.616 39.8172 119.901 40.3282 117.857 40.3282C115.2 40.4304 115.098 40.4304 116.938 41.861C118.164 42.7807 118.675 44.1091 118.266 45.4375C117.653 47.6856 118.573 48.0944 120.412 46.255C121.332 45.3353 121.945 45.3353 122.864 46.255C124.704 48.0944 125.93 47.6856 124.806 45.5397C123.988 44.0069 124.193 43.2916 126.032 42.0653L128.28 40.4304H125.521C123.682 40.3282 122.66 39.8172 122.66 38.8975C122.66 38.0801 122.251 37.0582 121.638 36.7516C121.127 36.4451 120.616 37.0582 120.616 38.1822Z" fill="url(#paint1_linear_90_40)"/>
<path d="M117.755 71.0868C102.836 73.5393 85.5663 84.2689 75.8586 97.0423C45.5091 137.202 65.6399 195.04 114.485 207.609C123.171 209.755 139.317 209.755 148.207 207.404C172.936 200.966 193.374 179.916 198.79 155.187C201.344 143.946 200.527 127.187 196.95 117.173C190.512 98.6773 178.046 85.0864 160.163 76.5027C147.594 70.5758 132.572 68.6343 117.755 71.0868ZM146.163 76.7071C172.017 82.7361 193.476 107.363 195.417 133.319L195.724 136.895L191.636 136.589C189.388 136.384 183.155 135.158 177.841 133.625C155.973 127.801 155.564 127.698 143.506 130.764C131.04 134.034 127.974 133.83 116.222 129.231C111.828 127.596 107.026 126.166 105.493 126.166C103.96 126.166 97.6244 127.801 91.4932 129.844C78.4133 134.034 66.4574 135.567 66.4574 133.012C66.4574 128.822 69.9317 117.071 73.0995 110.94C81.5811 93.9767 97.7266 80.9989 115.814 76.6049C123.273 74.7655 138.295 74.7655 146.163 76.7071ZM116.938 134.851C128.587 138.939 132.675 139.245 142.587 136.384C152.499 133.523 157.813 133.83 173.141 137.815C180.498 139.756 188.775 141.698 191.432 142.107C195.213 142.618 196.235 143.129 196.03 144.457C195.52 146.91 188.877 146.194 173.652 142.005C158.732 137.917 152.192 137.508 142.893 140.472C133.696 143.333 128.791 143.026 117.04 138.939C111.42 136.997 106.004 135.362 105.084 135.362C104.164 135.362 97.5222 137.202 90.3691 139.45C80.2526 142.72 76.063 143.537 71.6689 143.333C67.3771 143.129 65.8443 142.618 65.6399 141.391C65.4355 139.961 66.6618 139.654 73.3039 139.245C78.7198 138.837 84.4423 137.508 91.4932 135.056C97.1135 133.114 102.836 131.377 104.267 131.377C105.697 131.377 111.42 132.91 116.938 134.851ZM116.529 144.253C128.791 148.851 130.937 148.953 141.36 146.092C153.623 142.72 157.506 142.822 172.221 147.012C178.965 148.851 186.834 150.793 189.797 151.201C194.702 151.814 195.009 152.019 194.293 154.063C193.169 156.924 191.432 156.719 174.265 152.019C158.323 147.625 151.579 147.42 141.258 150.588C132.266 153.449 128.178 153.143 116.733 148.647C112.442 147.012 107.332 145.581 105.493 145.581C103.551 145.581 97.3178 147.216 91.4932 149.158C80.5592 152.939 67.4793 154.982 67.4793 152.939C67.4793 152.325 67.1727 151.201 66.8661 150.384C66.4574 149.158 67.4793 148.851 72.3842 148.749C76.4717 148.749 82.6029 147.42 91.0844 144.661C104.88 140.165 105.697 140.165 116.529 144.253ZM118.573 154.676C127.77 158.354 134.207 158.661 142.587 155.8C151.068 152.939 157.915 153.245 173.243 157.333C180.6 159.274 187.753 160.909 189.388 160.909C192.556 160.909 192.454 160.909 191.126 164.486C190.001 167.449 191.126 167.653 171.812 162.34C156.586 158.15 153.316 158.048 141.974 161.42C137.273 162.749 132.572 163.975 131.653 163.975C130.631 163.975 124.295 162.135 117.449 159.785L105.084 155.698L92.6172 159.683C85.8729 161.931 78.2089 163.975 75.6542 164.383C71.2602 164.997 70.9536 164.894 69.9317 162.135L68.8077 159.172L75.0411 158.559C78.4133 158.354 86.0773 156.413 92.0041 154.369C104.471 150.077 106.923 150.077 118.573 154.676ZM118.573 165.61C130.222 169.697 131.448 169.697 145.039 166.018C153.214 163.873 154.032 163.77 160.878 165.201C171.812 167.449 187.038 171.537 187.038 172.252C187.038 172.558 186.425 173.58 185.71 174.602C184.381 176.442 183.768 176.339 172.017 173.274C157.71 169.595 152.294 169.391 142.587 172.15C133.185 174.807 128.791 174.704 120.106 171.537C106.106 166.325 104.982 166.325 93.026 170.31C77.6979 175.522 77.0848 175.624 75.2455 172.967C73.3039 170.208 74.0192 169.084 77.4936 169.084C79.0264 169.084 85.0554 167.449 90.9823 165.508C96.9091 163.566 103.143 162.033 104.88 161.931C106.617 161.931 112.748 163.566 118.573 165.61ZM118.062 176.442C127.974 180.222 133.901 180.427 143.506 177.463C147.287 176.237 152.294 175.215 154.543 175.215C158.017 175.215 179.476 180.018 180.907 181.142C181.929 181.96 170.075 191.77 163.535 195.653C139.01 210.163 107.741 206.587 87.0992 186.967C83.3182 183.39 80.457 180.325 80.7636 180.12C81.0701 179.814 86.3838 177.974 92.5151 175.931C105.186 171.639 105.902 171.639 118.062 176.442Z" fill="url(#paint2_linear_90_40)"/>
<path d="M100.179 104.809C100.179 112.064 100.383 112.983 102.018 112.677C103.244 112.473 103.653 111.553 103.449 109.509C103.142 107.057 103.449 106.75 106.208 106.75C109.58 106.75 112.441 104.502 112.441 101.743C112.441 98.7795 109.069 96.5314 104.471 96.5314H100.179V104.809ZM108.865 101.641C108.865 102.56 107.741 103.276 106.106 103.48C103.755 103.787 103.244 103.378 103.244 101.641C103.244 99.9036 103.755 99.4948 106.106 99.8014C107.741 100.006 108.865 100.721 108.865 101.641Z" fill="url(#paint3_linear_90_40)"/>
<path d="M116.528 98.5752C111.93 103.174 115.098 112.881 121.127 112.881C124.499 112.881 128.484 109.1 126.747 107.363C125.93 106.546 125.214 106.648 124.192 108.079C123.375 109.203 121.842 109.816 120.412 109.611C118.368 109.305 118.061 108.794 118.061 104.706C118.061 100.619 118.368 100.108 120.514 99.8014C121.842 99.597 123.273 100.006 123.681 100.721C124.192 101.436 125.214 101.641 126.338 101.232C128.178 100.517 128.076 100.312 125.827 98.473C122.762 95.9183 119.083 96.0205 116.528 98.5752Z" fill="url(#paint4_linear_90_40)"/>
<path d="M131.857 98.5752C130.528 99.9036 129.813 101.947 129.813 104.706C129.813 109.714 132.572 112.881 136.966 112.881C141.36 112.881 144.119 109.714 144.119 104.706C144.119 99.6992 141.36 96.5314 136.966 96.5314C135.229 96.5314 132.981 97.4511 131.857 98.5752ZM139.827 100.823C140.543 101.539 141.054 103.276 141.054 104.706C141.054 106.137 140.543 107.874 139.827 108.589C138.09 110.327 134.207 110.122 133.492 108.181C131.857 103.889 133.594 99.597 136.966 99.597C137.886 99.597 139.112 100.108 139.827 100.823Z" fill="url(#paint5_linear_90_40)"/>
<path d="M147.083 96.7358C147.083 96.9402 146.98 100.619 146.776 104.911C146.572 110.94 146.878 112.881 147.9 112.881C148.82 112.881 149.229 111.144 149.229 106.955C149.331 100.517 150.557 101.232 151.783 108.487C152.601 113.494 154.951 114.414 155.973 110.02C157.914 101.334 158.221 100.925 158.323 106.955C158.425 111.553 158.834 112.881 159.958 112.881C161.184 112.881 161.491 111.246 161.491 104.706C161.491 96.7358 161.389 96.5314 159.039 96.5314C156.79 96.5314 156.382 97.1446 155.769 101.13C154.951 106.852 153.725 107.874 152.805 103.48C151.579 97.3489 151.17 96.5314 149.126 96.5314C148.105 96.5314 147.185 96.6336 147.083 96.7358Z" fill="url(#paint6_linear_90_40)"/>
<path d="M210.541 142.618C210.541 144.559 210.132 146.705 209.621 147.523C208.497 149.26 206.351 148.033 207.066 146.092C207.373 145.274 207.271 144.048 206.862 143.333C205.636 141.493 204.307 148.851 203.694 160.092C203.285 167.96 203.49 169.391 205.329 172.047C208.088 175.828 207.986 177.566 204.92 184.208C200.322 194.222 198.789 195.653 193.271 195.653C186.016 195.653 179.885 198.207 173.14 203.93C169.87 206.791 164.761 210.674 162.002 212.616L156.79 216.09L152.805 214.046C150.557 212.922 147.389 212.003 145.652 212.003C141.667 212.105 135.331 214.353 132.776 216.703C130.937 218.44 130.733 218.338 128.382 216.192C123.682 211.798 116.12 210.878 109.989 214.046C105.084 216.499 103.96 215.988 91.9017 205.973C82.6026 198.207 77.0845 195.653 69.4205 195.653C63.6981 195.653 62.2674 194.12 56.8515 182.164C51.9466 171.332 51.7422 169.288 55.3187 164.997C58.18 161.522 58.2821 161.522 58.2821 164.077C58.2821 165.507 57.3625 168.369 56.2384 170.617C53.6837 175.624 54.399 176.646 57.2603 172.047C59.5084 168.266 59.9171 158.865 58.0778 151.406C57.3625 148.34 56.7493 147.625 55.3187 148.136C54.0925 148.442 53.1728 148.136 52.764 147.114C51.9466 144.866 50.2094 145.274 48.9831 148.033C47.5525 151.201 44.9978 150.384 44.8956 146.705C44.6913 141.8 42.8519 151.61 42.2388 160.807C41.7279 169.288 41.7279 169.288 39.9907 166.631C38.9688 165.201 37.8447 164.281 37.5382 164.69C37.1294 164.997 37.6404 166.223 38.5601 167.347C40.3994 169.288 40.2972 169.391 37.8447 168.062C36.4141 167.347 34.8813 166.121 34.4726 165.405C34.0638 164.588 33.1441 163.975 32.531 163.975C31.6113 163.975 31.6113 164.281 32.531 165.201C33.2463 165.916 33.7573 168.062 33.7573 170.004C33.7573 173.376 33.6551 173.478 32.1223 171.536C30.5895 169.595 30.4873 169.595 31.2026 171.639C33.1441 177.463 34.5748 182.368 34.166 182.368C33.9616 182.368 35.4944 185.638 37.5382 189.624C41.4213 196.879 44.6913 199.74 49.0853 199.74C51.8444 199.74 51.7422 201.171 48.8809 202.601C46.9394 203.521 48.0634 203.725 54.8078 203.725C63.2893 203.828 71.6686 205.667 75.143 208.324C77.0845 209.754 76.9824 209.857 74.1211 209.039C72.4861 208.528 69.0118 207.404 66.5593 206.484C61.4499 204.543 59.9171 204.441 60.8368 205.871C61.1434 206.484 62.2674 206.893 63.1871 206.893C65.2309 206.893 67.8877 210.572 66.968 212.003C66.5593 212.616 65.7418 213.024 65.1287 213.024C64.4134 213.024 64.5155 212.616 65.4352 212.003C66.7637 211.083 66.7637 210.981 65.4352 210.878C64.6177 210.776 62.1652 210.572 60.0193 210.47C57.7712 210.265 56.4428 210.47 56.7493 211.083C57.1581 211.594 57.7712 212.003 58.2821 212.003C58.7931 212.003 60.5303 213.331 62.1652 214.966C65.6396 218.44 64.9243 219.156 57.9756 219.258C53.275 219.258 52.8662 219.053 64.6177 223.754C71.9752 226.82 76.4714 226.717 79.9458 223.55C81.5808 222.119 82.5005 222.017 88.9382 223.243C92.9235 223.958 95.887 224.878 95.4782 225.185C95.1716 225.491 92.5148 226.002 89.6535 226.309L84.3398 226.922L89.9601 229.681C93.741 231.52 97.2154 232.44 100.588 232.44C105.084 232.44 106.003 232.031 109.273 228.455C112.441 225.082 113.77 224.367 118.572 223.856L124.193 223.141L121.127 225.798C119.492 227.228 116.733 228.761 115.098 229.17C112.952 229.783 111.828 230.805 111.317 232.849C110.5 235.608 110.602 235.71 113.667 235.097C115.507 234.79 120.105 232.133 123.988 229.272L131.039 224.163L139.316 229.885C148.82 236.323 151.579 236.936 151.068 232.746C150.864 230.703 150.046 229.783 147.696 229.17C146.061 228.761 143.302 227.228 141.565 225.798L138.499 223.141L143.608 223.754C147.594 224.367 149.637 225.287 153.009 228.455C156.79 231.929 158.017 232.44 162.206 232.44C165.374 232.44 169.053 231.52 172.732 229.681L178.352 226.922L173.038 226.309C170.177 226.002 167.52 225.491 167.213 225.185C166.907 224.878 169.462 224.061 172.936 223.243C178.863 221.915 179.476 222.017 183.052 224.061C188.06 226.922 190.614 226.922 197.665 223.754C200.833 222.323 204.103 221.199 204.92 221.199C205.636 221.199 206.658 220.688 206.964 220.177C207.373 219.564 206.453 219.156 204.716 219.258C200.424 219.564 197.665 218.338 197.563 216.09C197.461 214.966 197.87 214.046 198.381 214.046C198.994 214.046 199.096 214.455 198.789 215.068C198.483 215.579 198.687 216.09 199.198 216.09C199.811 216.09 200.833 215.17 201.548 214.046C202.264 212.922 203.388 212.003 204.103 212.003C204.716 212.003 205.636 211.594 205.942 210.981C206.351 210.368 204.818 210.163 201.753 210.47C196.439 210.878 194.395 212.003 198.687 212.003C200.22 212.003 201.242 212.411 200.935 212.922C200.22 213.944 196.439 213.229 195.724 211.9C194.804 210.572 197.563 206.893 199.505 206.893C200.424 206.893 201.548 206.382 201.855 205.871C202.775 204.338 201.037 204.645 194.702 206.995C187.855 209.55 184.79 209.039 191.227 206.484C193.884 205.36 199.607 204.338 205.329 204.032C213.198 203.623 214.628 203.317 213.3 202.295C211.052 200.66 211.154 199.74 213.606 199.74C217.796 199.74 220.862 197.288 224.234 191.054C226.175 187.58 228.321 182.164 229.037 178.894C229.752 175.726 230.672 172.865 231.183 172.558C231.591 172.252 232 171.23 232 170.31C231.898 169.084 231.387 169.493 230.365 171.332C229.548 172.967 228.73 174.193 228.628 174.193C227.913 174.193 229.343 166.427 230.161 165.201C230.876 164.383 230.876 163.975 230.161 163.975C229.548 163.975 228.628 164.588 228.219 165.201C227.81 165.916 226.38 167.142 225.051 167.858C222.803 169.084 222.803 169.084 223.723 167.142C225.562 163.77 224.949 163.362 222.497 166.325L220.249 169.186L220.044 161.216C219.942 151.712 218.818 144.355 217.694 145.07C217.183 145.377 217.081 146.398 217.387 147.523C217.694 148.544 217.183 149.668 216.365 149.975C214.73 150.588 212.278 146.501 212.176 142.822C211.971 139.143 210.541 138.837 210.541 142.618ZM52.3553 148.851C52.9684 150.588 52.0487 155.8 51.1291 155.8C49.8006 155.8 48.8809 151.917 49.5963 149.668C50.3116 147.42 51.7422 147.012 52.3553 148.851ZM212.993 150.077C213.606 152.734 212.891 155.8 211.563 155.8C211.154 155.8 210.541 154.573 210.234 153.041C209.315 148.033 211.767 145.377 212.993 150.077ZM55.1143 154.982C53.9903 156.924 53.6837 157.026 53.3772 155.595C53.1728 154.676 53.5815 152.836 54.2969 151.508C55.4209 149.566 55.7275 149.464 56.034 150.895C56.2384 151.814 55.8297 153.654 55.1143 154.982ZM209.519 155.187C209.417 157.332 209.417 157.332 207.986 155.391C207.169 154.267 206.453 152.428 206.453 151.303C206.555 149.158 206.555 149.158 207.986 151.099C208.804 152.223 209.519 154.062 209.519 155.187ZM49.0853 157.128C49.0853 159.07 48.9831 159.172 47.0416 157.332C45.9175 156.311 44.9978 154.267 44.9978 152.836L45.1 150.179L47.0416 152.632C48.1656 153.96 49.0853 155.902 49.0853 157.128ZM215.752 157.23C213.606 159.274 213.606 159.274 213.606 157.23C213.606 156.106 214.424 154.062 215.446 152.734L217.183 150.179L217.489 152.632C217.694 154.062 216.979 155.902 215.752 157.23ZM57.1581 158.048C55.9318 162.34 54.1947 164.179 54.1947 161.113C54.1947 158.763 56.2384 154.778 57.4646 154.778C57.8734 154.778 57.669 156.208 57.1581 158.048ZM207.066 156.515C208.599 158.559 209.008 162.953 207.577 162.953C207.066 162.953 206.249 161.113 205.636 158.865C204.512 154.471 204.92 153.756 207.066 156.515ZM48.4722 163.975L49.0853 167.551L46.0197 164.179C44.1803 162.237 42.9541 159.785 42.9541 158.15V155.289L45.4066 157.843C46.735 159.274 48.0634 162.033 48.4722 163.975ZM219.124 159.581C218.716 161.216 217.387 163.566 215.957 164.997L213.402 167.551L213.709 164.486C214.015 161.522 217.183 156.822 218.92 156.822C219.431 156.822 219.533 158.048 219.124 159.581ZM52.9684 161.931C53.3772 166.223 51.5378 168.369 50.3116 164.997C49.1875 162.033 50.005 157.639 51.5378 158.15C52.1509 158.354 52.764 159.989 52.9684 161.931ZM212.38 163.055C212.176 164.997 211.665 166.427 211.052 166.325C209.825 166.018 209.11 161.318 210.03 159.07C211.052 156.413 212.789 159.274 212.38 163.055ZM209.11 167.551C209.928 168.369 210.132 169.799 209.621 172.15L208.906 175.726L206.658 171.434C205.431 169.084 204.41 165.814 204.41 164.281V161.522L206.045 163.975C207.066 165.405 208.395 167.04 209.11 167.551ZM47.7569 167.551C51.0269 169.595 53.0706 175.215 50.5159 175.215C48.8809 175.215 42.9541 168.369 42.9541 166.427C42.9541 164.69 43.0563 164.69 47.7569 167.551ZM218.92 167.551C218.511 169.901 213.504 175.215 211.665 175.215C209.621 175.215 212.074 169.391 214.935 167.347C219.227 164.486 219.533 164.486 218.92 167.551ZM38.7644 170.719C40.9104 173.376 41.6257 177.259 40.195 177.259C37.9469 177.157 34.7791 172.763 34.7791 169.697C34.7791 167.245 36.4141 167.756 38.7644 170.719ZM227.299 171.434C226.584 173.989 223.927 177.259 222.599 177.259C220.964 177.259 221.781 172.763 223.927 170.412C226.482 167.756 228.321 168.266 227.299 171.434ZM45.8153 179.405L45.5088 183.799L43.8738 181.346C42.9541 179.916 41.9322 176.748 41.6257 174.296L41.0125 169.799L43.5672 172.354C45.7131 174.398 46.1219 175.726 45.8153 179.405ZM220.453 174.5C220.249 176.85 219.431 180.018 218.716 181.346L217.285 183.901L216.468 180.018C215.854 176.85 216.059 175.624 217.898 173.171C219.124 171.434 220.249 170.106 220.453 170.106C220.657 170.106 220.657 172.047 220.453 174.5ZM38.3557 178.383C42.5453 180.835 44.9978 184.412 42.5453 184.412C39.4797 184.412 36.2098 182.164 35.0857 179.2C33.7573 175.624 33.6551 175.624 38.3557 178.383ZM51.1291 177.259C51.1291 177.77 51.7422 178.281 52.4575 178.281C53.7859 178.383 62.6762 195.653 61.3478 195.653C60.939 195.653 58.6909 191.872 56.3406 187.171C54.0925 182.573 52.1509 179.2 52.1509 179.814C52.1509 180.325 51.3334 179.916 50.5159 178.792C48.9831 176.85 48.9831 176.85 49.6984 179.814C50.005 181.449 50.4137 183.084 50.3116 183.39C50.2094 190.748 50.1072 191.156 48.4722 189.01C46.9394 187.069 47.0416 179.711 48.6766 177.157C49.3919 175.931 51.1291 175.931 51.1291 177.259ZM215.037 181.346C215.548 185.127 215.344 187.069 214.219 188.602C212.891 190.645 212.789 190.543 212.074 186.66C211.665 184.208 211.869 181.653 212.482 180.427C214.117 177.463 213.811 176.544 212.074 178.894C210.541 180.938 210.132 180.529 211.154 177.872C212.482 174.5 214.322 176.237 215.037 181.346ZM227.913 177.77C227.913 180.12 223.314 184.412 220.862 184.412C219.022 184.412 218.92 184.105 219.84 182.062C220.657 180.325 225.153 177.055 227.708 176.339C227.81 176.237 227.913 176.952 227.913 177.77ZM206.045 187.478C201.957 195.653 201.446 197.39 204.307 193.711L206.147 191.259L206.658 194.529C207.169 198.003 206.76 198.207 202.979 196.47L200.322 195.346L203.796 189.113C205.636 185.638 207.475 181.449 207.986 179.814C208.599 177.77 208.906 177.259 209.212 178.485C209.417 179.405 207.986 183.492 206.045 187.478ZM55.2165 190.543C55.2165 191.974 54.91 194.12 54.6034 195.448L53.8881 197.799L52.4575 195.653C51.3334 194.12 51.1291 192.178 51.64 188.295C52.3553 183.186 52.4575 183.084 53.7859 185.536C54.5012 186.865 55.1143 189.113 55.2165 190.543ZM210.439 194.835C209.825 196.368 208.906 197.39 208.395 197.083C207.066 196.266 207.271 189.01 208.701 185.843L210.03 183.084L210.745 187.58C211.256 190.339 211.154 193.098 210.439 194.835ZM46.9394 189.521C48.5744 191.872 48.5744 191.872 44.9978 191.259C41.7279 190.543 36.8229 187.069 36.8229 185.332C36.8229 183.697 45.5088 187.273 46.9394 189.521ZM223.723 187.989C221.27 190.441 214.628 192.587 214.628 190.952C214.73 188.908 217.387 186.865 221.27 185.843C226.482 184.514 226.891 184.923 223.723 187.989ZM50.8225 195.653C53.3772 198.82 52.3553 199.74 47.9613 198.105C44.1803 196.879 41.0125 194.324 40.9104 192.485C40.9104 191.259 49.5963 194.12 50.8225 195.653ZM58.9975 196.164C58.7931 196.674 57.9756 197.288 57.0559 197.492C55.9318 197.696 55.6253 196.981 56.034 194.529C56.4428 191.463 56.6472 191.361 57.9756 193.098C58.6909 194.222 59.2018 195.55 58.9975 196.164ZM220.146 194.733C218.307 196.879 216.774 197.594 211.665 199.229L209.315 199.944L211.052 196.981C212.278 194.835 214.015 193.711 217.081 192.996C222.292 191.769 222.599 191.974 220.146 194.733ZM80.4567 199.638C82.6026 200.762 87.0989 204.032 90.471 206.893C93.8432 209.754 98.5438 213.331 100.996 214.762C104.471 216.805 105.084 217.623 104.164 218.747C101.201 222.323 93.4345 219.769 82.5005 211.798C73.4058 205.258 66.7637 202.704 58.5887 202.499C52.2531 202.295 50.5159 201.579 53.9903 200.455C54.91 200.149 57.5668 199.127 59.8149 198.207C65.0265 196.164 75.143 196.879 80.4567 199.638ZM206.249 199.331C208.599 200.353 210.541 201.477 210.541 201.784C210.541 202.09 207.68 202.397 204.103 202.499C195.519 202.704 190.614 204.645 178.863 212.616C168.031 219.871 161.184 222.017 158.63 218.849C157.506 217.623 158.017 217.01 161.082 215.17C163.126 213.944 168.133 210.265 172.118 206.995C179.987 200.558 182.848 198.82 187.549 197.594C192.147 196.368 201.344 197.185 206.249 199.331ZM71.873 210.776C72.7927 211.594 73.6102 212.718 73.6102 213.127C73.6102 214.353 70.238 213.024 68.8074 211.185C65.844 207.608 67.7855 207.302 71.873 210.776ZM194.293 210.776C193.169 212.82 189.081 214.557 189.081 213.024C189.081 211.9 194.395 207.711 194.906 208.324C195.213 208.528 194.906 209.652 194.293 210.776ZM80.1502 214.353C81.2742 215.886 81.8873 217.316 81.5808 217.725C80.1502 219.053 76.9824 216.907 75.3474 213.535C73.7124 210.061 73.7124 210.061 75.9605 210.878C77.1867 211.287 79.0261 212.922 80.1502 214.353ZM187.446 213.229C185.607 216.805 184.279 218.134 182.235 218.134C179.885 218.134 180.804 215.273 184.074 212.616C188.264 209.039 189.49 209.243 187.446 213.229ZM91.7995 219.258C93.1279 219.769 93.8432 220.586 93.5367 221.199C93.1279 221.812 94.4563 222.221 96.8066 222.221C99.6679 222.323 100.281 222.528 99.0548 223.243C97.3176 224.265 84.8508 221.404 84.8508 219.973C84.8508 219.564 86.077 219.667 87.5076 220.177C88.9382 220.791 90.8798 221.199 91.7995 221.097C92.7192 221.097 91.4929 220.382 88.9382 219.667C84.7486 218.338 81.7851 215.886 81.7851 213.842C81.7851 213.433 83.5223 214.251 85.6683 215.681C87.712 217.112 90.471 218.747 91.7995 219.258ZM179.987 215.988C179.272 217.214 176.717 218.747 173.958 219.564C171.301 220.382 169.973 221.097 170.892 221.097C171.812 221.199 173.753 220.791 175.184 220.177C176.615 219.667 177.841 219.564 177.841 219.973C177.841 221.302 164.863 224.061 163.33 223.141C162.513 222.528 163.535 222.221 166.089 222.221C168.644 222.221 169.666 221.915 168.848 221.404C167.929 220.791 168.746 219.973 171.403 218.747C173.549 217.827 176.41 216.192 177.841 215.068C180.804 212.82 181.52 213.127 179.987 215.988ZM73.0993 215.375C74.2233 216.294 74.5299 217.01 73.8146 217.521C72.5883 218.236 67.9899 216.703 66.968 215.17C66.0484 213.535 70.8511 213.74 73.0993 215.375ZM126.441 216.397C128.076 218.032 128.076 218.134 125.215 218.134C120.718 218.134 112.339 222.426 108.66 226.717C105.799 229.987 104.982 230.396 100.485 230.396C97.8285 230.396 94.5585 230.09 93.3323 229.783C90.6754 229.068 90.1645 227.331 92.5148 227.331C95.376 227.331 100.588 224.061 106.106 218.951L111.522 213.842L118.164 214.251C122.558 214.557 125.317 215.273 126.441 216.397ZM156.484 218.951C160.571 223.243 167.213 227.331 170.177 227.331C172.527 227.331 172.016 229.068 169.462 229.783C168.133 230.09 164.863 230.396 162.104 230.396C157.608 230.396 156.79 229.987 153.418 226.309C149.433 221.915 142.178 218.236 137.784 218.134C136.149 218.134 134.922 217.725 134.922 217.214C134.922 215.477 140.543 214.046 146.47 214.353C151.885 214.659 152.703 215.068 156.484 218.951ZM195.724 215.17C194.702 216.703 190.103 218.236 188.877 217.521C187.242 216.499 190.921 214.046 193.986 214.046C195.417 214.046 196.132 214.455 195.724 215.17ZM70.9533 219.053C72.6905 219.667 72.4861 219.973 69.7271 221.097C67.7855 221.915 65.333 222.119 63.6981 221.71L60.8368 220.995L63.3915 219.667C66.2527 218.032 68.0921 217.929 70.9533 219.053ZM197.665 219.258C199.096 219.973 200.015 220.893 199.709 221.302C198.994 222.63 195.724 222.426 192.658 220.995C190.206 219.871 190.103 219.667 191.841 219.053C194.497 217.929 194.804 218.032 197.665 219.258ZM80.4567 220.791C80.9677 222.426 75.4496 224.469 71.4643 224.061L67.9899 223.652L70.749 222.528C72.1796 221.812 73.7124 220.791 74.1211 220.177C75.0408 218.747 79.9458 219.258 80.4567 220.791ZM127.667 220.791C126.543 221.812 124.601 222.221 121.536 222.017L117.04 221.71L120.616 220.484C122.558 219.871 125.317 219.258 126.747 219.258C128.996 219.156 129.098 219.258 127.667 220.791ZM142.075 220.688L145.652 222.017L141.258 222.119C138.805 222.221 135.842 221.71 134.718 221.097C133.185 220.28 132.776 220.28 133.287 221.097C134.309 222.63 130.937 223.754 129.609 222.426C128.791 221.608 129.098 220.995 130.937 220.28C134.309 218.951 137.784 219.053 142.075 220.688ZM188.571 220.28C188.979 220.791 190.512 221.812 191.943 222.528L194.702 223.652L191.227 224.061C187.855 224.367 181.928 222.63 181.928 221.199C181.928 219.053 187.344 218.236 188.571 220.28ZM128.382 224.061C127.463 225.593 113.361 234.688 112.85 234.177C111.726 233.155 113.361 231.622 117.959 229.476C120.412 228.25 123.171 226.411 124.193 225.287C125.93 223.345 129.506 222.323 128.382 224.061ZM140.44 226.82C143.2 228.761 146.061 230.396 146.776 230.396C148.309 230.396 150.761 233.257 149.944 234.177C149.229 234.79 136.762 227.024 134.82 224.674C132.776 222.119 135.229 223.141 140.44 226.82Z" fill="url(#paint7_linear_90_40)"/>
<path d="M70.0338 201.375C72.2819 202.193 75.8584 204.236 77.9022 205.871C81.9896 209.244 84.8509 210.061 80.8656 206.893C79.5372 205.769 78.924 204.849 79.435 204.849C80.7634 204.849 83.7268 208.119 83.6246 209.448C83.4203 210.776 93.2302 216.703 96.6024 217.316C99.7702 217.929 99.9746 216.499 96.9089 215.681C95.5805 215.375 91.0843 212.309 86.8946 208.835C78.2087 201.784 74.1212 199.74 69.3185 199.842H65.9463L70.0338 201.375Z" fill="url(#paint8_linear_90_40)"/>
<path d="M186.527 201.171C184.892 201.886 179.987 205.36 175.797 208.835C171.608 212.309 166.907 215.375 165.374 215.783C163.842 216.09 162.82 216.703 163.024 217.112C163.637 218.032 168.031 217.01 171.812 215.068C176.513 212.616 185.096 205.769 184.483 204.849C184.177 204.338 184.483 203.623 185.096 203.214C185.914 202.806 186.016 202.908 185.607 203.623C184.688 205.054 186.22 205.258 187.651 203.828C188.162 203.317 190.41 202.193 192.658 201.375L196.746 199.842H193.169C191.228 199.842 188.264 200.455 186.527 201.171Z" fill="url(#paint9_linear_90_40)"/>
<defs>
<linearGradient id="paint0_linear_90_40" x1="133.669" y1="64.6357" x2="133.692" y2="25.3694" gradientUnits="userSpaceOnUse">
<stop stop-color="#1E6E4B"/>
<stop offset="1" stop-color="#3CE199"/>
</linearGradient>
<linearGradient id="paint1_linear_90_40" x1="121.985" y1="47.4214" x2="121.99" y2="34.8244" gradientUnits="userSpaceOnUse">
<stop stop-color="#1E6E4B"/>
<stop offset="1" stop-color="#3CE199"/>
</linearGradient>
<linearGradient id="paint2_linear_90_40" x1="130.896" y1="209.193" x2="130.972" y2="46.1213" gradientUnits="userSpaceOnUse">
<stop stop-color="#1E6E4B"/>
<stop offset="1" stop-color="#3CE199"/>
</linearGradient>
<linearGradient id="paint3_linear_90_40" x1="106.31" y1="112.727" x2="106.322" y2="93.746" gradientUnits="userSpaceOnUse">
<stop stop-color="#1E6E4B"/>
<stop offset="1" stop-color="#3CE199"/>
</linearGradient>
<linearGradient id="paint4_linear_90_40" x1="120.981" y1="112.881" x2="120.991" y2="93.8085" gradientUnits="userSpaceOnUse">
<stop stop-color="#1E6E4B"/>
<stop offset="1" stop-color="#3CE199"/>
</linearGradient>
<linearGradient id="paint5_linear_90_40" x1="136.966" y1="112.881" x2="136.976" y2="93.7196" gradientUnits="userSpaceOnUse">
<stop stop-color="#1E6E4B"/>
<stop offset="1" stop-color="#3CE199"/>
</linearGradient>
<linearGradient id="paint6_linear_90_40" x1="154.104" y1="112.881" x2="154.113" y2="93.7196" gradientUnits="userSpaceOnUse">
<stop stop-color="#1E6E4B"/>
<stop offset="1" stop-color="#3CE199"/>
</linearGradient>
<linearGradient id="paint7_linear_90_40" x1="131.387" y1="235.408" x2="131.412" y2="123.497" gradientUnits="userSpaceOnUse">
<stop stop-color="#1E6E4B"/>
<stop offset="1" stop-color="#3CE199"/>
</linearGradient>
<linearGradient id="paint8_linear_90_40" x1="82.5217" y1="217.465" x2="82.5268" y2="196.807" gradientUnits="userSpaceOnUse">
<stop stop-color="#1E6E4B"/>
<stop offset="1" stop-color="#3CE199"/>
</linearGradient>
<linearGradient id="paint9_linear_90_40" x1="179.872" y1="217.454" x2="179.877" y2="196.813" gradientUnits="userSpaceOnUse">
<stop stop-color="#1E6E4B"/>
<stop offset="1" stop-color="#3CE199"/>
</linearGradient>
</defs>
</svg>
