<svg width="29" height="29" viewBox="0 0 29 29" fill="none" xmlns="http://www.w3.org/2000/svg">
<g clip-path="url(#clip0_0_26)">
<path d="M15.3616 10.1537C15.3616 7.59605 13.29 5.52444 10.7323 5.52444C8.17466 5.52444 6.10305 7.59605 6.10305 10.1537C6.10305 12.7114 8.17466 14.783 10.7323 14.783C13.29 14.783 15.3616 12.7114 15.3616 10.1537ZM13.047 10.1537C13.047 11.4268 12.0054 12.4684 10.7323 12.4684C9.45929 12.4684 8.4177 11.4268 8.4177 10.1537C8.4177 8.88068 9.45929 7.83908 10.7323 7.83908C12.0054 7.83908 13.047 8.88068 13.047 10.1537ZM1.47375 21.727V24.0416H19.9909V21.727C19.9909 18.6485 13.8224 17.0977 10.7323 17.0977C7.64229 17.0977 1.47375 18.6485 1.47375 21.727ZM3.7884 21.727C4.01987 20.9053 7.60757 19.4123 10.7323 19.4123C13.8455 19.4123 17.4217 20.8937 17.6763 21.727H3.7884ZM23.4629 18.255V14.783H26.9349V12.4684H23.4629V8.99641H21.1483V12.4684H17.6763V14.783H21.1483V18.255H23.4629Z" fill="#4B4B4B"/>
</g>
<defs>
<clipPath id="clip0_0_26">
<rect width="27.7758" height="27.7758" fill="white" transform="translate(0.316406 0.895142)"/>
</clipPath>
</defs>
</svg>
