<svg width="29" height="29" viewBox="0 0 29 29" fill="none" xmlns="http://www.w3.org/2000/svg">
<g clip-path="url(#clip0_0_31)">
<path d="M14.2043 7.1302C15.5468 7.1302 16.6346 8.21809 16.6346 9.56058C16.6346 10.9031 15.5468 11.991 14.2043 11.991C12.8618 11.991 11.7739 10.9031 11.7739 9.56058C11.7739 8.21809 12.8618 7.1302 14.2043 7.1302ZM14.2043 17.5461C17.6415 17.5461 21.2639 19.2358 21.2639 19.9765V21.2496H7.14459V19.9765C7.14459 19.2358 10.767 17.5461 14.2043 17.5461ZM14.2043 4.93129C11.6466 4.93129 9.57497 7.0029 9.57497 9.56058C9.57497 12.1183 11.6466 14.1899 14.2043 14.1899C16.762 14.1899 18.8336 12.1183 18.8336 9.56058C18.8336 7.0029 16.762 4.93129 14.2043 4.93129ZM14.2043 15.3472C11.1142 15.3472 4.94568 16.898 4.94568 19.9765V23.4485H23.4629V19.9765C23.4629 16.898 17.2943 15.3472 14.2043 15.3472Z" fill="#4B4B4B"/>
</g>
<defs>
<clipPath id="clip0_0_31">
<rect width="27.7758" height="27.7758" fill="white" transform="translate(0.316406 0.302002)"/>
</clipPath>
</defs>
</svg>
